# xmcd CD database file
#
# Track frame offsets:
#	150
#	6140
#	20825
#	42495
#	53630
#	55275
#	77685
#	104570
#	121250
#	130140
#	151235
#	164520
#	169630
#	188025
#	192005
#	197995
#	215540
#	220695
#	236475
#	253400
#	272455
#	275025
#	288015
#	302275
#	319765
#
# Disc length: 4457 seconds
#
# Revision: 7
# Processed by: cddbd v1.5.2PL0 Copyright (c) Steve Scherf et al.
# Submitted via: CDex 1.70beta2
#
DISCID=64116719
DTITLE=This Mortal Coil - Filigree and Shadow
DYEAR=1986
DGENRE=New Age
TTITLE0=Velvet Belly
TTITLE1=The Jeweller
TTITLE2=Ivy and Neet
TTITLE3=Meniscus
TTITLE4=Tears
TTITLE5=Tarantula
TTITLE6=My Father
TTITLE7=Come Here My Love
TTITLE8=At First, and Then
TTITLE9=Strength of Strings
TTITLE10=Morning Glory
TTITLE11=Inch-Blue
TTITLE12=I Want to Live
TTITLE13=Mama K (1)
TTITLE14=Filigree and Shadow
TTITLE15=Firebrothers
TTITLE16=Thais (1)
TTITLE17=I Must Have Been Blind
TTITLE18=A Heart of Glass
TTITLE19=Alone
TTITLE20=Mama K (2)
TTITLE21=The Horizon Bleeds and Sucks Its Thumb
TTITLE22=Drugs
TTITLE23=Red Rain
TTITLE24=Thais (2)
EXTD=YEAR: 1986
EXTT0=
EXTT1=
EXTT2=
EXTT3=
EXTT4=
EXTT5=
EXTT6=
EXTT7=
EXTT8=
EXTT9=
EXTT10=
EXTT11=
EXTT12=
EXTT13=
EXTT14=
EXTT15=
EXTT16=
EXTT17=
EXTT18=
EXTT19=
EXTT20=
EXTT21=
EXTT22=
EXTT23=
EXTT24=
PLAYORDER=
